<svg id="Capa_1" enable-background="new 0 0 512 512" height="512" viewBox="0 0 512 512" width="512" xmlns="http://www.w3.org/2000/svg">
  <g>
    <path d="m512 298.055v18.493c0 36.177-14.09 70.185-39.68 95.776-25.61 25.591-59.63 39.676-95.82 39.676-52.42 0-97.97-29.909-120.5-73.544-22.53 43.635-68.08 73.544-120.5 73.544-36.19 0-70.21-14.085-95.81-39.666-25.6-25.601-39.69-59.609-39.69-95.786v-18.493c0-8.277 6.72-14.995 15-14.995s15 6.718 15 14.995v18.493c0 28.17 10.97 54.65 30.9 74.583 19.93 19.913 46.42 30.879 74.6 30.879 58.17 0 105.5-47.313 105.5-105.462v-24.761c9.641 2.261 20.352 2.278 30-.02v24.781c0 58.149 47.33 105.462 105.5 105.462 28.18 0 54.67-10.966 74.61-30.889 19.92-19.923 30.89-46.403 30.89-74.573v-18.493c0-8.277 6.72-14.995 15-14.995s15 6.718 15 14.995z" fill="#f97315" />
    <path d="m391.42 120.608c-46.926-63.664-148.613-75.46-216.89-43.414-53.958 23.713-92.05 87.385-75.369 142.98 4.819 16.833 19.239 28.629 36.749 30.039 17.61 1.42 33.84-7.967 41.34-23.912l6.81-14.465c7.082-14.807 28.826-12.697 32.85 3.219 0 0 5.56 22.252 5.56 22.252 4.764 21.208 29.287 32.231 48.53 22.881 9.08-4.268 15.94-12.435 18.55-22.881l5.56-22.252c1.95-7.817 8.94-13.275 17-13.275 6.75 0 12.97 3.949 15.85 10.056l6.81 14.465c7.51 15.944 23.73 25.331 41.34 23.912 58.35-6.984 44.91-93.995 15.31-129.605z" fill="#f97315" />
  </g>
</svg>
